<svg id="Layer_1" data-name="Layer 1" xmlns="http://www.w3.org/2000/svg" viewBox="0 0 2000 2000"><defs><style>.cls-1{fill:#f1f1f1;}.cls-2{fill:#45ef9f;}.cls-3{fill:#43ea9c;}.cls-4{fill:#42e599;}.cls-5{fill:#40e095;}.cls-6{fill:#3ed78f;}.cls-7{fill:#40dd93;}.cls-8{fill:#f7f7f7;}.cls-9{fill:#fbfbfb;}.cls-10{fill:#f4f4f4;}.cls-11{fill:#f0f1f1;}.cls-12{fill:#40d992;}.cls-13{fill:#73f3b7;}.cls-14{fill:#a1f5ce;}.cls-15{fill:#404040;}.cls-16{fill:#373b39;}.cls-17{fill:#cff7e4;}.cls-18{fill:#cff8e5;}.cls-19{fill:#cecece;}.cls-20{fill:#6fe3ad;}.cls-21{fill:#676767;}.cls-22{fill:#9f9f9f;}.cls-23{fill:#ebebeb;}.cls-24{fill:#eee;}.cls-25{fill:#efefef;}.cls-26{fill:#ededed;}.cls-27{fill:#eeefee;}.cls-28{fill:#eceeed;}.cls-29{fill:#494949;}.cls-30{fill:#474747;}.cls-31{fill:#a7f0ce;}.cls-32{fill:#a4eecb;}.cls-33{fill:#85efbd;}.cls-34{fill:#b0f0d2;}.cls-35{fill:#afeed1;}.cls-36{fill:#88f0c0;}.cls-37{fill:#a5f0cd;}.cls-38{fill:#3ed58e;}.cls-39{fill:#3ed58f;}.cls-40{fill:#3ed28d;}.cls-41{fill:#dadada;}.cls-42{fill:#393939;}.cls-43{fill:#c3e8d7;}.cls-44{fill:#e3e3e3;}.cls-45{fill:#dfdfdf;}.cls-46{fill:#e0e0e0;}.cls-47{fill:#e2e2e2;}.cls-48{fill:#dbdbdb;}.cls-49{fill:#dcdcdc;}.cls-50{fill:#383838;}.cls-51{fill:#e5e5e5;}.cls-52{fill:#e9e9e9;}.cls-53{fill:#3ed48e;}.cls-54{fill:#3ed68f;}.cls-55{fill:#3fda91;}.cls-56{fill:#424242;}.cls-57{fill:#353535;}.cls-58{fill:#ade4ca;}.cls-59{fill:#80deb2;}.cls-60{fill:#e7e7e7;}.cls-61{fill:#b4ebd2;}.cls-62{fill:#3fdc93;}.cls-63{fill:#3fd690;}.cls-64{fill:#40df95;}.cls-65{fill:#40d991;}.cls-66{fill:#41e095;}.cls-67{fill:#40de94;}.cls-68{fill:#42e598;}.cls-69{fill:#3fda92;}.cls-70{fill:#e6e6e6;}.cls-71{fill:#eaebea;}.cls-72{fill:#eaeaea;}.cls-73{fill:#3fdb92;}.cls-74{fill:#e2e3e3;}</style></defs><title>5566878-01</title><path class="cls-1" d="M2002.66,1235.69V1241c-2.67,2.75-2.47,6.45-3.21,9.84-1.44,4.55-3.75,8.77-5,13.41s.87,6.49,5.15,6.86a7.29,7.29,0,0,1,3,1.85v111.85a4.64,4.64,0,0,1-3.62,1.33c-10.32-4-19.37-10.46-29.77-14.55-24.73-9.73-47.1-4.23-68,9.36s-37.81,31.88-51.63,53c-7.46,11.37-13.29,24.26-25.44,32-8,1.57-13.14-4.33-18.84-8-36.76-23.73-80.48-21.52-112.62,8.75-4,3.81-7.75,8.87-14.62,7.16-7.83-6.81-8.29-17-11.67-25.84-4.46-11.64-9.66-22.51-20.82-29.25-5.15-4.81-10.35-4.74-15.6-.12-23,12.39-37.77,33-53,53-39,51.28-73.48,106.15-118.21,153-23.89,25-49.53,47.89-81.08,63.23a66.25,66.25,0,0,1-21.41,6.54c-4.57-.3-8.5,1.67-12.45,3.59a9.69,9.69,0,0,1-5.95-.8c-20.54-9.91-42.4-11.35-64.7-10.35-5.27.24-10.57,1.15-15.86.25-12.88-1.21-23.17-8.49-32.85-15.79a302,302,0,0,0-63.61-36.9A13.47,13.47,0,0,0,1150,1631c-22.7-2.91-45.39-3.77-68.07,0a15,15,0,0,0-11.08,3.17c-32.43,11.47-59,32-83.93,54.87-37,34-66.67,74.44-97.14,114.15-34.46,44.92-66.86,91.57-109.46,129.73-17.07,15.29-37,24.81-58.58,29.6s-39.18-7.92-56.22-19.16c-11.05-7.29-20.61-16.89-33.56-21.16-3-2.06-6-4.12-9.9-4.36a14.63,14.63,0,0,1-5.34-2.12c-9.07-16.13-16.6-33-27.22-48.43A211.48,211.48,0,0,0,547,1821.58c-55.46-44-81.78-104.39-100.52-169.8-10-35-21.44-69.6-44-99-30.23-39.39-77-43-113.3-8.63-18.36,17.37-35.95,35.54-53.68,53.57a82.87,82.87,0,0,1-26.3,17.66c-14.2,6.25-27.07,3.47-38.4-6.1-10.86-9.17-20-20-28.08-31.8C124,1550.09,108.54,1520.24,83,1498c-19.21-16.75-40.78-28-66.61-30C11,1467.61,4,1469,4,1459.88q.07-401.06,0-802a24.26,24.26,0,0,1,.3-4.74c6.17-6.6,14.55-6,22.47-6.93a14.75,14.75,0,0,0,10.62-3.43c45.42-15.38,76-49.51,105.4-84.6,29.94-35.77,54-75.84,79.17-115,15.81-24.57,30.69-49.78,47.13-74a608.33,608.33,0,0,1,55.07-69.88c13.92-15.14,30.28-27.19,47.86-37.75a44.93,44.93,0,0,1,21.27-6.83c4.17.25,7.08-2.78,10.65-4.12,31.77-6.07,57.95,7.26,83.18,23.91,25.19,19.2,45,43.82,66.72,66.5,16.93,17.66,35.32,33.79,57.6,44.38,32.22,15.31,66,9.22,91.93-15.6,21.75-20.83,36.76-46.59,51.4-72.35,21.47-37.77,37.66-78.21,57-117.07,2.77-5.55,5.06-11.45,11.4-14.11,6.87-1.07,10.88,3.35,14.09,8.15,22.92,34.26,69.54,48.11,115.1,27.3,16-7.29,29.75-17.49,43.66-27.64,7.28-5.31,14.53-8.26,23.44-6.51,7.94,1.89,13.28,8,19.74,12.27,8.32,5.53,16.38,11.62,27.17,11,4,.46,7-1.83,10.26-3.48a12.08,12.08,0,0,1,5.88-.34c31.41,11.8,62.67,5.24,94.26.32,27.78-4.33,52.4-18.16,79.33-24.26,28.91-6.54,55.3-21.54,84.34-26,33.92-5.24,65.48-19.81,100.25-22,14.27-.91,28.71-4.78,43.32-4,39.32,1.94,56.11,16.82,65.44,49,4.94,17,6.42,34.71,8,52.36,3.71,42.79,8,85.61,28.13,124.56,10.4,20.17,22.54,39.83,45.06,48.72a104.4,104.4,0,0,0,48.71,7c38.37-3.22,62.49-29.3,90.54-49.37,18-12.87,32.76-29.65,50.13-43.4,16.22-12.84,36.46-9.28,45.35,9.07,5.23,10.78,9,22.19,13.19,33.38,11.89,31.93,30.18,60.07,50.66,86.83a107.45,107.45,0,0,0,27.49,24.95c13.85,8.8,24,22.47,39.44,29.08a8.2,8.2,0,0,1,5.17,8.58q-.08,365.5,0,730.93C2001.35,1227,2000.19,1231.56,2002.66,1235.69Z"/><path class="cls-1" d="M2002.66,1779c0,71-.21,142,.27,213,.06,9.13-1.8,10.92-10.92,10.91q-443.41-.47-886.82-.26c-3.64-4.23-1.51-8.26.44-12.3,23.62-49.09,43.09-100.1,68.41-148.4,11.51-22,23.92-43.21,40.27-62.24,38.16-44.43,85.86-47.47,133.79-15.78,15.9,10.52,29.3,24.27,43.19,37.29,23.17,24.35,44.89,50.33,76.66,64.65,7.41,3.34,15.23,4.6,22.76,7.12,5.63,4.38,11.3,4.73,17,0,30.6-7.57,50.89-27.22,64.86-54.64,5-9.88,12-18.64,17.9-28.05,14.38-26.09,25.19-53.74,36.31-81.28,18.07-44.78,33.1-90.82,55.23-133.93a166,166,0,0,1,9.33-16.1c8.81-12.07,15.51-25.74,27.11-35.69,19.94-17.08,44.39-17.94,65.34-2.28,3.17,2.38,6.22,4.93,9.5,7.16,26.48,22.85,46,51.14,62.74,81.45,22,40,45.69,78.79,75.33,113.54A204.07,204.07,0,0,0,1997,1774C1999.3,1775.14,2000.81,1777.24,2002.66,1779Z"/><path class="cls-1" d="M197.07,2002.66H5.33c-2.46-4.59-1.24-9.56-1.24-14.34Q4,1760.59,4,1532.89c.41-8.76,7.34-7.53,12.64-7.56,17.15-.1,31.36,7.36,43.88,18.47a160.46,160.46,0,0,1,31.86,38.36c16.45,25.56,29.49,53.37,50.63,75.91,16.49,17.59,35.12,30.38,60.34,26.45,19.58-3,33.84-16.42,48.06-29.1,21.5-19.17,37-43.92,58.73-62.91,3.2-2.39,6.48-4.66,9.53-7.22,25-21,46.56-11.49,62.58,14,4.67,7.44,8.21,15.66,11.8,23.75,10.76,25.27,17.6,51.79,25,78.17,10,35.92,24,70.18,44.06,101.82,18.52,29.15,43.39,52.23,69.6,74,4.75,4,9.07,8.37,14,12.15,6.82,6.85,12.61,14.62,19.12,21.74,4.88,5.33,7.3,11,2.92,17.79-31.41,20.75-58.71,46.18-84,73.9H218.38c-3.22-7.92-7.3-15.06-16.74-18.36C198.61,1990.05,202.44,1997.7,197.07,2002.66Z"/><path class="cls-1" d="M2002.66,5.33V410.12a5,5,0,0,1-3.44,1.37c-19.5-7.57-33.41-22.4-47.74-36.72-17.36-20-28.88-43.15-37.07-68.13-6.88-21-14.48-41.76-20.55-63-3.11-7.81-5.19-16-8.47-23.74-5.16-12.12-12.25-22.59-25.59-27-3.65-.73-6.34,1.16-8.92,3.32a101.83,101.83,0,0,0-27.42,19.22c-9.79,9.89-19.54,19.82-29.51,29.52-3.27,3.18-6,7.88-11.89,6.49-11.61-3.88-18.35,2.26-17.73,16.2a13.23,13.23,0,0,1-4.8,9.12c-24,19.72-46.7,41.37-76.71,52.31-28.4,12.94-55.38,2.22-67.32-26.45-6.87-16.49-9.28-34-12.68-51.31-3.17-27.88-3.7-55.89-4.45-83.87-4-23.31-4.16-47.36-13.89-69.63-11.21-25.67-28.27-44.34-56.85-50.13-10.46-1.63-21.08-2.06-31.21-5.84-4.49-1.67-9.72-1.07-14.53-.19-39.54,7.25-79.78,10.48-118.63,21.72-40.42,11.7-80.82,23.43-121,36.06-23.58,7.42-46,19-71,21.58-4.61-.73-8,2.26-11.84,4-12.38,2.4-24.86,8.61-37-.86-2.52-5.27-.92-10.41.75-15.44C1132.44,81,1138.48,52.44,1144.8,24c1.51-6.79,2.07-14.13,8-19.16a10.33,10.33,0,0,1,4.82-.79q414.67,0,829.3.07C1992.18,4.1,1997.6,2.8,2002.66,5.33Z"/><path class="cls-1" d="M2.66,386.15V348.87a6.49,6.49,0,0,1,3-1.73c6.8-8.71,6.11-22.3-1.63-32,0-1.54,0-3,0-4.56Q4,165,4.08,19.47c0-4.81-1-9.75,1-14.44,5.17-1.95,10.55-1,15.82-1Q311.08,4,601.18,4c3.3.13,9.06.1,6.72,4.62-7.25,14,5.35,17.83,11.36,25,1.09-6-.2-11.9.42-17.75.49-4.55-.41-9.87,5.65-11.82q40.54,0,81,0a15.9,15.9,0,0,1,4.34.4c3.89,4.47,1,8.47-1.36,12-37,56.18-71.26,114.69-123.7,158.72C551.48,203.83,513,220.6,467,212.32c-3.28-1.79-6.38-4.08-10.42-3.91-7.76-1.14-15.29-3-21.88-7.51-14-4.75-25.36-14.29-36.67-23-20-15.36-40.67-29-64.53-37.48-3-2-6-4.16-9.89-3.79-47.3-7.35-87.82,7.93-125,36.13-19.92,15.09-37.81,32.24-54.7,50.39-30.19,32.48-56.6,68.07-83.23,103.46C44.94,347.54,28.79,368.07,10,386.33a7.56,7.56,0,0,1-3.71,1.37A5.38,5.38,0,0,1,2.66,386.15Z"/><path class="cls-2" d="M484.69,2002.66c13.49-23.32,33.93-40.08,54.34-56.71,8.65-7.06,17.61-14,28.21-18.22,3.92-4.49,7.84-9,14.2-10,6.52-1.37,13.55-.81,19.26-5.23a19.11,19.11,0,0,1,17.11,2.19l4.81.66c2.71,1.87,6.19,2.25,8.69,4.53,15.39,1.65,25.47,12.83,37.17,21,16.36,11.4,33.61,22.73,54.09,18,23-5.25,43.18-17,60.85-33.57,33.13-31,60.11-67,87.31-102.89,38.26-50.52,74.89-102.53,123-144.52,22.53-19.68,46.06-38.8,76.51-45.74,2.52-2.14,6.11-2.35,8.51-4.71,24.7-4.49,49.39-3.68,74.08.09,2.49,2.18,6.09,2.38,8.46,4.76,25.31,6.55,45.43,22.46,66.54,36.67,8.84,6,17,13.67,28.52,14.32,2.27,1.17,2.19,3,1.47,5-47.9,16.5-76.79,53.64-101.49,94.76-32.49,54.08-53.44,113.84-82.33,169.71a282.49,282.49,0,0,1-32.69,49.87H998.67a305.46,305.46,0,0,1-34.34-34.85c-13-15.16-26.83-29.35-43.16-41-40.4-28.79-80.93-18.21-110.31,19.19-11.2,14.26-20.46,30-26.2,47.41-1.29,3.92-3.31,7.21-7,9.24Z"/><path class="cls-3" d="M1339.55,1696.37l5.19-.15a7.5,7.5,0,0,1,7.67-1.31c36.11,22.38,65.08,53.26,96.43,81.3,6.36,5.69,13.64,9.83,21.08,13.83,26.35,14.18,45.87,10.63,64.21-13s32.14-49.9,43.55-77.48c22.53-54.48,41.65-110.39,68.37-163.12,6-11.94,13.43-23,21.18-33.81,3.46-4.82,6.79-11,14.77-8.52a9.24,9.24,0,0,1,2.87,2.8c2.45,4.93,4,10,3.51,15.65a15.54,15.54,0,0,1-1,3.91c-32.31,45.75-50.67,98.16-71.65,149.37-7.06,17.23-13.37,34.73-20.45,52-13.23,32.18-29.93,62.16-52.58,88.69-14.1,16.52-44.39,27-67.74,17.29-20.71-8.56-37.92-21-53.28-36.56a489.36,489.36,0,0,0-65.56-56.16c-45.09-31.87-101.38-31.67-141.73,8.77-26.61,26.67-46.35,57.75-63.72,91.06-22.33,42.85-40.88,87.36-61.45,131-6.69,14.21-15.56,27.4-24,40.75h-13.32c-1.7-3.31-.09-6.05,1.71-8.59,24.24-34.29,39.62-73.13,56.75-111,19.73-43.65,39.69-87.22,68.45-125.86,17.85-24,38.48-45.39,66.52-57.75,10-4.42,20.36-8.92,31.94-6.83,2.83.26,5.66.48,8.47,1C1303.55,1697.33,1321.76,1692.89,1339.55,1696.37Z"/><path class="cls-4" d="M1065.25,2002.66c16.11-33.51,33.23-66.59,47.88-100.74,6.34-14.78,12.77-29.63,19.74-44,21.43-44.32,44.28-87.9,80.87-122.38,14.44-13.6,30.86-24.27,49.94-28.25,37-7.74,69.67,2.85,100.44,25,29.59,21.31,53,49.18,81.48,71.38,16.53,12.88,34.94,22.42,56.75,20.39,13.8-1.28,27-7,35.92-17.36,24.88-28.87,43-61.9,56.83-97.45,17.37-44.66,33.89-89.76,53.93-133.22,9.76-21.16,20-43.14,36.62-60.7,3.3,1.88,4.54,5,5,8.49a12.58,12.58,0,0,1-1.24,6c-26.15,38.93-42.23,82.61-59.7,125.71-20.1,49.59-37.09,100.76-69.24,144.62-2.88,3.93-5.68,7.9-8.74,11.72-28.57,35.7-71.13,33.57-104.6,10.83-23.28-15.82-41.29-37.51-62.54-55.61-24.16-20.58-49.35-38.85-80.73-47-19.83-5.11-38.31.57-55.09,9-32.59,16.42-54.32,44.18-72.92,75-31.2,51.79-52.28,108.4-79.15,162.22-6.33,12.68-10.26,27.73-23.47,36.28Z"/><path class="cls-5" d="M1073.24,2002.66c23.88-41.22,42.39-85,61.79-128.4a647.25,647.25,0,0,1,43.29-81.55c17.7-28,39.75-53.08,70-68.23,33-16.55,65-10.52,95.79,8.12,31.92,19.3,57.87,45.5,84.63,70.83,22.94,21.71,48.66,36.16,81.65,31.39,20-2.89,32.28-17.07,43.52-31.73,29.09-37.92,45.66-82.18,63.36-126,18.79-46.5,35.1-94.18,61.49-137.32,2.56-4.19,4.62-8.6,9.2-11l1.71,1.33c2.71,4.79,2.38,9.63.26,14.5-10.31,10.78-16.1,24.35-22.25,37.52-16.45,35.19-30.76,71.3-45.21,107.34-5.59,13.92-12.7,27.22-17.28,41.56-12.61,26.28-24.64,52.73-41.58,76.83-16,22.78-37,38-63.91,40.72-16.73,1.69-33.65-5.9-48.66-14.87-23-13.79-40.28-34.4-60.28-51.76-19.39-16.82-38.19-34.1-62.24-44.6-33-14.4-63.47-12-93.53,8.74-22.63,15.58-37.87,36.8-52,59.31-32.06,51.18-54,107.37-79.89,161.62-5.93,12.43-9,27.26-21.87,35.65Z"/><path class="cls-3" d="M777.63,2002.66c6.49-20.42,15.83-39.46,28.81-56.49,14.18-18.59,31-33.42,55.31-37.75,20.24-3.61,38.56.44,55.44,11.56a210.12,210.12,0,0,1,51,47.84c9.42,12.22,23.75,20.19,30.43,34.84H972c-5.46-3.13-9.75-7.57-13.85-12.24-14-16-29-31-45.9-43.91-21-16.07-53.55-18-75.27,2.52-16.42,15.56-27.78,34.07-38.09,53.63Z"/><path class="cls-6" d="M1389.94,1803.31c-15.78-11.45-28.82-26.12-45.18-37-23.08-15.4-47.91-24.6-75.31-18.94-21.68,4.48-38.25,18.73-52.87,35.57-26.26,30.25-42.81,66.07-59.72,101.6-17.73,37.26-33.9,75.27-50.69,113-.69,1.56-.67,3.43-1,5.16h-16c-2.92-3.28-1.7-6.16.26-9.57,24-41.83,40.08-87.48,61.65-130.42,21.34-42.45,43.08-85.33,83.21-114.65,25.2-18.42,52.4-18.3,80.83-10.92,21.48,9.23,42.09,19.74,59.39,36.05,13.09,12.34,25.89,25.11,40.92,35.24a16.82,16.82,0,0,1,3.16,2.41c22.45,25.67,48.13,45.18,84.45,44.67,3.53,0,7.1.31,10,2.83,2.45,9.65-5.11,8.68-10.34,9.17-18.36,1.72-34.89-4.56-50.57-13.09-19.24-10.47-34.71-25.75-50.12-41C1398.3,1809.67,1395,1805.47,1389.94,1803.31Z"/><path class="cls-7" d="M1416.78,1810.92h-2.67c-16.13-15.38-32.18-30.84-49.45-45a148.3,148.3,0,0,0-49.08-26.9c-23.7-3.92-47.74-6.47-69.68,5.44-15.3,8.3-29.49,19.34-38.17,35.06-4.6,8.32-13,12.14-18.32,20.24-11.3,17.37-20.09,36.11-30.15,54-15.6,27.7-26.29,58.14-39.48,87.23-8.27,18.23-16.24,36.71-28.3,52.93-2,2.73-2.25,5.67-2.27,8.78h-8c19.1-35.22,34-72.44,51.2-108.53,13.39-28.08,26.59-56.34,42.94-83.1,11.52-18.86,23.74-37,39-52.68,13.05-13.46,28.44-23.84,47.11-29.58,44-13.54,77.73,6.2,109.75,32.18,23.93,19.42,45.43,41.6,68.76,61.61,10.13,8.69,23.24,14.56,37.18,18.62,15,4.35,28.34,4.19,42.39-1,17.63-6.53,30.51-18.78,40.74-34.05,13.46-20.11,27.49-39.91,34.67-63.51,1.36-4.46,3.18-9.38,8.25-11.57a7.48,7.48,0,0,1,2.25,5.7c-7.11,28-23.94,50.88-39.07,74.78-9.53,15-21.44,26.87-37,35.15-20.41,10.85-41.5,11.78-62.24,2C1447.9,1839.59,1429.67,1828.67,1416.78,1810.92Z"/><path class="cls-3" d="M1275.86,1696.32c-17.53-1.85-32.3,6-45.68,15.26-34.75,24.13-57.56,58.12-78,94.63-28.62,51-48.45,106.1-75.58,157.74a263.18,263.18,0,0,1-24.63,38.71h-10.65c.45-5.09,3.24-9,6.11-13,29.6-41.3,47-88.82,68.27-134.36,22.67-48.57,45.46-97.07,84.61-135.17a161.31,161.31,0,0,1,41.92-29.8,22.36,22.36,0,0,1,15.19-2c6.54-2.89,12.62-1.68,18.44,2A4.94,4.94,0,0,1,1275.86,1696.32Z"/><path class="cls-8" d="M5.32,1528.64v474c-5.51-2.39-2.49-7.19-2.5-10.65-.23-57.7-.17-115.4-.17-173.1V652.46a1.61,1.61,0,0,1,2.72.48l0,811.77c5.58,7,3.78,15.17,3.82,23.06.07,5.42.33,10.84-.05,16.26.09,3.84.2,7.68,0,11.53C9.27,1520.33,8.66,1524.88,5.32,1528.64Z"/><path class="cls-4" d="M798.93,2002.66c-1.21-15.26,9.83-25.58,17.28-36.1,10-14.11,22.54-28.09,39.84-33.7,18.6-6,38-3.68,54,7.48,22.44,15.6,40.72,36.1,58.87,56.46,1.42,1.6,2.07,3.89,3.08,5.86H958.72c-8.82-3.93-14.19-11.76-20.65-18.35-10.84-11.08-21.65-22.14-35.6-29.52-23.11-12.22-47.25-8.88-65.76,9.49-8.81,8.75-17.21,17.89-22,29.66a17.64,17.64,0,0,1-7.8,8.72Z"/><path class="cls-9" d="M2002.66,5.33l-849.05-.08c-.85-.44-1.21-1-1.07-1.59s.35-1,.59-1q418.77,0,837.55.17C1994.58,2.83,1999.71-.24,2002.66,5.33Z"/><path class="cls-5" d="M806.92,2002.66c9.21-21.31,21.22-39.8,42.64-51.55,22.69-12.45,43.3-8.3,62.72,5.35,18,12.65,32.83,28.91,46.44,46.2h-16c-10.56-6.58-17.8-16.87-27.53-24.47-30-23.38-56-24.72-81.68,7.24-3,2-6.83,1.16-9.93,2.6,4.14,4.45,5.92,9.14,2,14.63Z"/><path class="cls-10" d="M2002.66,1235.69c-4.77-4.87-2.55-11-2.56-16.48q-.18-365.93-.1-731.86c-2.66-3.1-3.13-6.44-1.11-10.05a2.61,2.61,0,0,1,3.77-.6Z"/><path class="cls-11" d="M924.1,2002.66H844.21c-5.64-6.55,2.53-14-1.42-20.72,5-11.55,15.3-14.49,26.23-16.76C884.23,1962,919.1,1983.56,924.1,2002.66Z"/><path class="cls-9" d="M607.87,5.65Q507.44,5.49,407,5.34q-200.85-.07-401.69,0c-.9,1.27-1.79,1.33-2.68,0,3-5.57,8.09-2.5,12-2.5q297.6-.29,595.2-.17a1.8,1.8,0,0,1,1,1.54c0,.66-.09,1-.26,1A2.31,2.31,0,0,1,607.87,5.65Z"/><path class="cls-12" d="M924.1,2002.66c-9.77-11.71-20.65-22-34.09-29.64-15.53-8.83-34.9-4.58-45.54,10.78q-5.46,5.07-10.93,0c4.93-13.51,15.59-19.74,28.64-23.87,29.88-9.47,48.08,10.42,67.55,26.57,5.17,4.3,11,8.9,13,16.15Z"/><path class="cls-13" d="M2000,1384.86l2.68,0V1739a3.68,3.68,0,0,1-4-1.43c-2.58-4.2-2.3-8.9-2.41-13.55-.48-8.06-.43-16.13-.16-24.21-1.23-42.06-.38-84.11-.5-126.16q-.25-83.65,0-167.33C1995.66,1399,1994.1,1391.11,2000,1384.86Z"/><path class="cls-8" d="M2.66,5.33H5.34q0,155.31,0,310.6-.75,2.2-2.73,1Z"/><path class="cls-14" d="M5.38,652.94l-2.72-.48V386.15l3,.39c4.53,5.26,3.22,11.63,3.41,17.72.26,3.83-.15,7.66.15,11.49.26,4.68-.06,9.35-.06,14,.57,8.15.25,16.29.12,24.45,1,61.23.36,122.45.3,183.67,0,4.85-.18,9.85-4.07,13.63A2.61,2.61,0,0,1,5.38,652.94Z"/><path class="cls-9" d="M830.89,2.66h237a3.15,3.15,0,0,1-1.3,4.33,16.3,16.3,0,0,1-4.81,1.82c-25.13,1.9-50.31.68-75.46.81-44.61.23-89.22.11-133.83,0-6.57,0-13.31.7-19.49-2.57A4.49,4.49,0,0,1,830.89,2.66Z"/><path class="cls-15" d="M197.07,2002.66v-26.41c10.4,5.3,16.46,12.52,23.33,18.6,3.54,3.14-1.11,5.24-2,7.81Z"/><path class="cls-16" d="M833.54,1983.81h10.93c8.21,6.41-3.45,12.53-.26,18.86H825.57c-.24-2.1.14-4.56-.82-6.25C818.56,1985.68,823.8,1983.24,833.54,1983.81Z"/><path class="cls-17" d="M830.89,2.66a10.07,10.07,0,0,0,.48,2.56c-.51.53-1,1-1.52,1.58-4.75,2.59-9.94,2-15,2.16-3.67.28-7.34,0-11,.08-3,.38-6,0-9.06.09q-21,.61-41.92,0c-3-.11-6.05.24-9.06-.1-3.69-.11-7.39.16-11.09-.07Q729.37,9,726,9c-5.27.06-10.58.25-14.88-3.62l-1-.3a1.92,1.92,0,0,1,.86-2.42Z"/><path class="cls-9" d="M711.05,2.66a4.1,4.1,0,0,1-.86,2.42l-86.61.15c-.83-.46-1.17-1-1-1.6s.36-1,.6-1Z"/><path class="cls-18" d="M1067.84,5.09c0-.81.05-1.62.07-2.43h85.22a8.18,8.18,0,0,0,.48,2.59l-1.1.44c-7.06,5.33-15.23,3.24-23.06,3.46-7,0-14,.42-21,0-4.6-.09-9.2.39-13.81,0-5.38,0-10.77.34-16.15-.08C1074.52,8.91,1070.61,8.54,1067.84,5.09Z"/><path class="cls-19" d="M623.17,2.66a4.83,4.83,0,0,0,.4,2.57c-.14,11.21-.27,22.42-.46,33.62,0,.28-.51.55-.78.82-.62-.84-1.23-1.68-1.85-2.51a19.75,19.75,0,0,1-3.67-13.44,22.9,22.9,0,0,0-7-18.62,15.28,15.28,0,0,0,.08-2.44Z"/><path class="cls-20" d="M2000.18,1739c.83,0,1.65,0,2.48,0v40l-5.5-2.47c-1-4.6-.7-9.27-.76-13.93s-.08-9.45.16-14.18a15.85,15.85,0,0,1,2-8C1999.12,1740,1999.65,1739.5,2000.18,1739Z"/><path class="cls-21" d="M1997.48,1249.07q-.93-6.3,5.18-8.06v32l-2.56.31C1993,1265.88,1998.41,1257.13,1997.48,1249.07Z"/><path class="cls-1" d="M2002.66,476.7H2000c-4.29-4.19-3.62-9.61-3.69-14.84s-.22-10.25.71-15.33a11,11,0,0,1,1.8-4,2.74,2.74,0,0,1,3.84-.48Z"/><path class="cls-22" d="M2.66,316.91l2.73-1a.83.83,0,0,1,0,1.43c5.93,10.37,5.69,20.77.22,31.21l-3,.3Z"/><path class="cls-23" d="M2002.66,442.08H2000c-4-3.76-3.79-8.69-3.86-13.56.39-6.32-1.37-13.1,3.86-18.4h2.65Z"/><path class="cls-2" d="M5.5,651.53l.15-198.81c37.13-23.41,63.27-57.59,89.47-91.63s52.22-68.32,82.14-99.16c17.85-18.4,38-34.41,61-46.67,37.23-19.89,74.4-20.45,112-1.29,15.44,7.87,29.22,18.41,44,27.28,3.78,2.26,7.42,5.16,6.54,10.56-1.06,3.54-4.65,4.14-7.1,6.07-25.54,4.32-43.54,21.05-60.88,38.13-38.31,37.75-66.27,83.3-95.12,128.18-41.12,63.94-78.52,130.73-135.87,182.56-18.74,16.94-38.39,32.78-64.16,38.07-2.52,2.14-6.11,2.36-8.51,4.72C21.2,649.45,13.57,653.15,5.5,651.53Z"/><path class="cls-2" d="M822.69,167.76c-15.21,26.36-26.29,54.72-39.57,82-20.19,41.51-40.46,83-72.19,117.4-24.52,26.6-54.71,36.77-89.32,26.5-24.47-7.26-44-24.17-62.23-41.68-21.43-20.55-39-44.83-61.46-64.44-3.72-3.25-10.56-3.67-11-10.42,5.21-5.08,12.23-5.16,18.61-5.73,42.77-3.81,77.53-25.08,107.86-52.8,44.72-40.87,79.75-89.91,111.45-141.41,9.7-15.76,19.49-31.64,31.7-45.74,13.79-15.93,25.64-13.81,33.16,6.11,5.35,14.14,7.24,29.2,11.14,43.73a492.46,492.46,0,0,0,16.69,50.41c2.83,7.28,6.79,13.37,13.56,17.43C834.13,158,827.5,162.46,822.69,167.76Z"/><path class="cls-2" d="M1682.53,1496.83c-6.64-4-8.83,2.37-11.28,5.65-18.09,24.22-30.65,51.51-42.56,79.07-23.07,53.38-40.22,109.35-67.68,160.76-10.64,19.93-21.58,40.85-42.46,53.27-11.19,6.66-22.4,9.48-35.29,4.48-17.55-6.8-33.38-16.39-46.59-29.46-24.85-24.59-49.84-48.87-79.4-67.88-2.37-1.52-4.23-3.15-4.41-6.12-.19-2.4,1-4,2.93-5.24,26.07-5.31,46.75-20.7,66.37-37.13,54.15-45.34,92.95-103.62,133.79-160.21,18.08-25,35.51-50.78,59.91-70.67a35.25,35.25,0,0,1,13.79-6.85,15.34,15.34,0,0,1,16.36,0c12,2.83,16,13.27,20.26,22.63,4.88,10.79,8,22.37,11.88,33.61C1682.85,1480.15,1687.63,1487.6,1682.53,1496.83Z"/><path class="cls-2" d="M2000,1384.86q0,158.43-.1,316.87c-14.25,2.59-22.84-7.64-31.55-15.43-28-25.06-48.39-56.38-67.46-88.3-23-38.42-46.38-76.36-77.22-109.14-2.42-2.57-5-5-6.44-8.39-1.83-7,.83-12.08,6.74-15.77,20.89-29.23,38.85-60.8,68.77-82.65C1930.72,1354.31,1967.89,1358.64,2000,1384.86Z"/><path class="cls-3" d="M830.36,149c-10.33,5.23-11.16-5.1-13.17-9.56a353.18,353.18,0,0,1-20.83-61.34c-3.15-12.83-6.13-25.7-9.65-38.41-1.86-6.7-3.84-14.19-12.27-15.47s-12.59,5.72-16.8,11.11C737.56,61,721.93,89.75,703.43,116.56,677.05,154.79,649,191.85,614.3,222.77c-36.06,32.09-77.79,53-127.4,54.37-14.57-5.32-26.87-14.91-42-19.89-14.51-4.78-28.28-4.16-42.59-3.9a1.87,1.87,0,0,1-2.83-.81c-.92-1.94-1.29-4.77-2.82-5.7-27-16.45-51.88-36.55-84.64-42.14-29.87-5.09-56,3.59-80.56,18.37-40.79,24.52-70.66,60.54-99.94,97.16-32.47,40.61-61.83,83.91-100.82,119-7.15,6.44-14.41,13.28-25,13.52q0-12,0-24c41.58-30.94,70.45-73.41,102-113.34,27.52-34.83,54.75-69.79,89.56-97.86,24.55-19.8,52.27-34.48,83.11-40,29.91-5.34,57.81,5.49,83.56,20.35,15.34,8.85,30.31,18.44,45.38,27.77,26,16.09,54.17,24.85,85.6,23.8,45-1.5,79.81-23.47,111.89-52C649.67,159.32,680.89,112,711.52,64.13,724.18,44.35,737.08,24.7,751,5.75h45.29c7,14.33,12.89,29.09,14.12,45.11,1.84,23.84,13.8,44.61,19.62,67.23,1.33,5.13,6,8.68,9,13,2,3.09,1.76,6.21.09,9.34-1.95,3.08-3.7,6.35-7,8.32Z"/><path class="cls-24" d="M2000,460.72v26.63c-22.93-5.74-36.88-24.73-54.57-38-20-15-32.54-36.79-46.13-57.83-15.08-23.34-23.93-48.76-33.53-74.14-9.66-25.54-24.56-28-47.17-10.55-23.89,18.46-44.81,40.39-69.93,57.41-11.56,7.82-22.64,16.38-34.29,24.19-7.06,4.72-14.6,2.12-21.74,4.49-26.39,8.75-51.42,4.91-74.86-10.09-9-5.76-16.49-12.83-21.94-22-6.2-10.47-14.6-20.23-18.17-31.53-7.58-24-18.7-47.21-18.82-73.37,0-11.34-3-22.65-4.35-34-1.28-11.08-2.39-22.22-3.57-33.26a151.66,151.66,0,0,0-10.71-43.25c-9.15-21.88-28.39-27.5-48.67-30.73-22.52-3.57-44.4,3.42-66.45,6.54-16,2.26-31.8,6.36-47.77,9.16-4.33.76-7.25,2.9-10.13,5.7-2.21,2.16-4.47,5.35-7.69,4.68-23.88-5-44.57,7.19-65.19,14.54-25.2,9-52.32,12-76.16,23.78-22.49,11.13-46.77,10.3-70,15.9-19.43,4.7-37.7,1.17-56.5-.58-4.41-.41-6.89-3.81-10.5-5.35.31-8.49,7.31-10.74,13.14-14.11a18.28,18.28,0,0,1,11.77-.57c20.93,5.22,41.29,1.26,61.59-3.74,61.2-15.07,120-38.34,181-53.91,45.86-11.7,91.72-23.85,140-22.1,39.89,1.45,65,20.72,73.2,60,7.59,36.53,9.28,73.93,15.45,110.68,5.17,30.74,16.41,58.89,35.88,83.42,22.25,28,60.8,33.35,95.21,15.25,35.84-18.86,65.39-45.5,94.74-72.59,6.54-6,12.9-12.18,20.75-16.54,19.76-11,34.31-7.18,46.34,12,10,15.89,16.07,33.59,23.42,50.68,21.16,49.21,49.59,92.14,98.79,117.74A35.13,35.13,0,0,1,2000,460.72Z"/><path class="cls-25" d="M5.33,1488.69v-24c46.49-2.08,78,23.54,104.53,57.42,19.58,25,33.56,53.92,55.34,77.6,21.58,23.47,42.65,18.16,63.3-.4,18.76-16.87,35.85-35.6,53.81-53.37,18.61-18.4,39.71-29.71,67.31-28.41,17.87.85,31.55,8.53,43.53,19.73,24.25,22.68,36.43,52.63,47,83.23,14.27,41.31,24.59,84,45.3,123,13.89,26.18,33.25,47.7,55,67.12,33,29.41,63.31,60.56,77.33,104l-18.43.23a2.69,2.69,0,0,1-3.62.08c-16.94-39-47.66-66.61-77.71-94.88-31.93-30-54.13-66.39-68.48-107.64C436.75,1675.56,426,1638,410.49,1602a134.6,134.6,0,0,0-26.43-39.67c-23.36-24.5-46.13-25.4-73.67-7.88-20.09,12.77-34.69,31.61-52.23,47.2-8,7.06-14.93,15.2-22.77,22.42-22,20.25-53.47,23.8-78.41-1.1-16.59-16.56-28.86-35.84-41.19-55.3-16.55-26.12-36.31-49.15-62.74-65.87-8.37-5.3-16.92-8.92-27.34-8.8C19,1493.12,11.34,1493.69,5.33,1488.69Z"/><path class="cls-2" d="M1094.5,178.42c-5.9,1.72-8.44,7.63-13.3,10.65l-4.93.35c-2.52,2.14-6.08,2.38-8.54,4.65-17,1.8-28-9.38-40-18.53-2.4-1.84-5-3.48-7.43-5.22-5.11-4.48-12.91-7-11.66-16.09,43-40.37,78.7-86.75,110.76-136.07,2.87-4.41,5.35-9.18,9.75-12.4l23.37-.08c-7,39.48-18,78-29.06,116.45-.93,4.05.48,8.44-1.68,12.33-1.48,4.57-4.44,8.45-6,13-2.22,5.65-5.65,10.6-8.82,15.72C1103.74,169,1098.48,173.2,1094.5,178.42Z"/><path class="cls-26" d="M1009.22,154.5c1.87,6.54,10,8.69,11.06,15.82-16.45-3.23-26,9.61-36.91,17.33-38,26.8-77.49,38.22-121.19,15.37-9.95-5.21-19.07-12.67-25.08-22.82-3.43-5.8-6.77-11.57-14.41-12.44q3.84-9.4,7.67-18.8l1.14.42c8.13-3.52,9.65,4.12,12.6,8.08,14.43,19.39,32.76,31.92,57.16,34.91,13,1.6,25.43-.48,37.61-4.8,20.23-4.69,34.42-19.54,51-30.41,5.14-3.38,9.57-8.31,16.67-5.4A7.65,7.65,0,0,1,1009.22,154.5Z"/><path class="cls-27" d="M1824,1464.7l-6,15.55c-.33,3.49-2.7,4.73-5.75,5.24-9.63-.82-16.64-7.69-25.27-11-29.72-11.25-57.45-10.18-83.09,10.72-6,4.85-10.1,14-20.42,11.26l-.94.32-4.38-24.14c13.73-6.88,22.63-20.88,37.49-25.89s29.19-9.63,46.57-7.92C1786.42,1441.26,1804.17,1454.35,1824,1464.7Z"/><path class="cls-28" d="M1275.15,1691.48l-17.77-3.22q-.53-2.51-1.06-5c13-.06,26.15.55,39.14-.36,14-1,26.18,5.8,39.37,8,3.07.52,4.42,2.53,4.72,5.44-18.62,3.71-37.22,4.19-55.8-.25C1281.31,1693.78,1277.76,1693.5,1275.15,1691.48Z"/><path class="cls-29" d="M77.51,1104.54c-4.58-2.11-12.61,3.82-13.19-6.1-.39-6.65,10.48-26.69,12.84-25,8.74,6.14,10.5,16.79,12.06,25.93C90.7,1108,81.36,1102.18,77.51,1104.54Z"/><path class="cls-30" d="M1997.48,1249.07c5.39,7.58,1.38,16.18,2.62,24.21-3.38,2-7.19,4.53-10.46.89-2.07-2.31-.46-5.65.86-8.52C1993,1260.2,1995.17,1254.6,1997.48,1249.07Z"/><path class="cls-31" d="M1646,1416.45l-16.36,0C1635.08,1408.74,1640.54,1408.69,1646,1416.45Z"/><path class="cls-32" d="M1355.79,1691.36c-1,1.75-2,3.49-2.93,5.24l-8.12-.38C1346.23,1689.6,1351.36,1691.27,1355.79,1691.36Z"/><path class="cls-33" d="M1067.73,194.07c.86-5.2,4.54-5.23,8.54-4.65C1075.34,194.48,1071.84,194.84,1067.73,194.07Z"/><path class="cls-34" d="M631.31,1919.83c-3.92.46-7.72.68-8.69-4.53C626.75,1914.44,630.38,1914.54,631.31,1919.83Z"/><path class="cls-35" d="M399.48,252.54l2.83.81c-.9,5.27-4.58,5.25-8.63,4.53C394,254.39,396.42,253.1,399.48,252.54Z"/><path class="cls-36" d="M29.14,649.54c.85-5.15,4.43-5.39,8.5-4.72C36.77,649.92,33.17,650.12,29.14,649.54Z"/><path class="cls-36" d="M1078.72,1627.43c-.86,5.14-4.43,5.38-8.51,4.72C1071.09,1627.05,1074.69,1626.85,1078.72,1627.43Z"/><path class="cls-37" d="M1161.26,1632.28c-4,.53-7.56.24-8.46-4.76C1157,1626.74,1160.37,1627.25,1161.26,1632.28Z"/><path class="cls-38" d="M1999.89,1763c-.45,4.61,1.95,9.79-2.73,13.54-30.42-11.9-53.44-33.57-74.11-57.75-27.11-31.72-47.88-67.81-68.3-104-17.26-30.56-36.4-59.56-62.38-83.54-2.41-3.25-2.6-6.24,1-8.76,17.16,6.76,26.39,22.14,37.84,35,21.8,24.55,34.38,55.18,53.5,81.51,25.26,46.19,57.55,86,103.09,113.83C1992.36,1755.6,1997.24,1757.94,1999.89,1763Z"/><path class="cls-39" d="M1694,1560.56c-22.73,39.32-37.44,82.12-54,124.11-14.48,36.67-27.34,74-47.16,108.39-9.7,6.51-13.35,17.7-20.26,26.38-2.72,3.41-4.15,8.32-10,4.86-2.6-6.62,2.3-10.74,5.37-15.26,16.76-24.73,31.12-50.67,40.42-79.2a31.74,31.74,0,0,1,1.43-3.65c10.91-21,17.29-44,27.44-65.35,1.93-4.07,2.37-8.39,2.83-12.75,10.8-29.4,24.64-57.44,38.88-85.27,2.55-5,5-10.61,12-11C1694.5,1553.86,1696,1556.6,1694,1560.56Z"/><path class="cls-40" d="M1563.25,1824.23c12.6-7.16,15.84-21.67,24.81-31.71,2.12-2.37,3.88-6.35,4.74.54-14.87,19.58-22.42,44.14-42,60.58-12.81,10.76-25.66,20.87-43.34,21.62a15.84,15.84,0,0,1-16.25,0c-32.49-2.83-54.83-23.8-76.86-44.38-8.84-8.26-19.31-15.73-24.41-27.57,3.87-4.83,5.68-.73,8.1,1.74,17.6,17.93,35.63,35.53,58,47.41,15.94,8.47,33,13.82,51.6,11.59,3.21-.39,4.53-2.31,5-5.2C1532.15,1851.17,1545.5,1834.48,1563.25,1824.23Z"/><path class="cls-41" d="M1694,1560.56l-2.82-8a6.26,6.26,0,0,1-1.12-7.88c14.77-29.76,42.39-46.19,73.56-43.38,13.21,1.18,25,5.42,32.07,17.89a3.76,3.76,0,0,1-1.09,3.9c-3,2.09-2.22,5.21-2.21,8.11-10.59-3.87-16.81-14.08-29.24-16.58-24.18-4.86-39.48,6.68-53.16,23.23C1704.08,1545,1699.27,1553,1694,1560.56Z"/><path class="cls-42" d="M1834.24,1840.48c3-5.1-3.59-12.51,4.33-15.86,2.87-1.21,20.72,15,19.33,17.15-4.76,7.19-11.62,16.26-18.92,15.88C1829.54,1857.16,1837.74,1846.14,1834.24,1840.48Z"/><path class="cls-43" d="M1491.21,1875.26h16.25Q1499.33,1886.53,1491.21,1875.26Z"/><path class="cls-44" d="M5.32,1528.64v-13.33c10.59-6.14,21.28-4.26,31.9-.24,22.81,8.64,39.26,25.28,54.43,43.5,14.7,19.49,27.11,40.55,41.22,60.45,9,12.71,18.87,25.09,32.16,33.31,26.3,16.26,49.82,12.8,74.95-9.69,16.87-15.1,32.16-31.83,48.24-47.74,7.24-7.17,14.19-14.6,23.09-19.93,29.21-17.49,56.88-12,76.83,15.72,11.29,15.65,18.51,33.29,24.79,51.37,10.62,30.6,19.69,61.73,31.32,92,17.2,44.76,44.32,82.61,79.94,114.63,5.3,4.77,12.66,9,11.7,18.16a7.71,7.71,0,0,1-5.23,2.55c-11.58-1.36-15.81-11.93-23.22-18.53-1.77-2.95-3.26-6.14-6.18-8.26a20.74,20.74,0,0,1-2.4-2.47,31.26,31.26,0,0,0-7.46-7.28,247.63,247.63,0,0,1-60.92-99.58c-10.7-32.73-20.91-65.62-31.88-98.26-1.31-3.9-1.93-8.94-7.13-10.49-7.73-10.53-9.89-24.08-19.94-33.61-18-17.07-28.18-18.44-48.21-4.12-3.91,2.81-7.84,5.59-11.76,8.39-10.73,3.1-16.07,12.62-23.29,19.79-18.76,18.63-35.71,38.89-58.36,53.62-29.55,19.21-65.92,9.15-88.22-16a330.7,330.7,0,0,1-40-55.84c-2.63-4.61-4.36-11-11.19-12.13-9-10.7-16.39-22.52-26.47-32.59C47.47,1535.4,28.75,1526.76,5.32,1528.64Z"/><path class="cls-45" d="M90.53,1584.58c1.27-6.24,3.56-5.17,6.31-.88,5.7,8.9,11.33,17.87,17.14,26.71,11,16.77,21.88,34.06,37.41,46.83,37.39,30.75,67.57,20.65,100.17-9.48,16.73-15.47,32.09-32.42,48.23-48.55,3.09-3.09,5.88-8.49,11.77-4-27.39,26.25-48.26,58.65-80.16,80.86-28.62,19.92-58.6,15.12-82.74-7.33C123.12,1645,107.61,1614.21,90.53,1584.58Z"/><path class="cls-46" d="M508.66,1848.2c7.51,5.75,11.68,15.31,21.3,18.64,5.1,4.61,12,7.24,15.69,13.3,1.89,3.12,7.72,7,.25,10.71a318.4,318.4,0,0,1-61.56-54.27c-40.45-45.79-61.22-100.89-75.11-159.41-4.26-18-11.75-35.13-17.76-52.66.53-1.2.24-4.74,2.47-2.33a38.93,38.93,0,0,1,8.43,14.85c10.89,34.09,21.05,68.47,33.41,102,13,35.18,32.25,66.88,59.56,93.16,2,2.52,2.65,5.93,5.33,8A24.22,24.22,0,0,1,508.66,1848.2Z"/><path class="cls-44" d="M545.9,1890.85c2.21-7.58-4-10.63-8.22-14.37-3.19-2.86-7.82-4.23-7.72-9.64h5.33c6.61-3.44,9.74,2.21,13.16,5.61a150,150,0,0,1,32.8,48l-14,7.28c4.28-14.84-10.88-18.92-16.1-28.51C549.64,1896.46,546,1894.78,545.9,1890.85Z"/><path class="cls-44" d="M1113.59,146.5c-.41-5.27,4.13-8.63,5.17-13.33a18,18,0,0,1,12.55-3.55c26.25,1.53,50.23-7.38,74.91-14.63,53.89-15.84,106.62-35.71,161.37-48.37,21-4.86,42.52-8.36,63.82-12.14,21.66-3.86,43.16-6.09,64.59-4.38,31.25,2.48,59,15,75.69,42.91,13.94,23.27,21.65,48.94,23.41,76.7A589.6,589.6,0,0,0,1605.87,253c5.15,14.44,6.1,29.89,11.42,44.38,9.41,25.58,27.48,36.77,54.1,33,4.84-.69,7-5.57,11.71-5.45,6.64,4.32,12.9,1.5,18.41-1.92,16.85-10.46,34.52-19.77,48.75-34,6.61-6.61,13.88-12.3,23.18-14.79a11.71,11.71,0,0,1,8,1.83,5.43,5.43,0,0,1,1.49,3.94c-2.64,7.74-9.86,11.34-15.52,15.92-24.43,19.76-48.28,40.11-79.21,50.28-19.82,6.52-36.66,3.3-52.8-7.9-16.56-11.49-27-27.6-34.32-46.29-11.72-29.8-14.42-61.15-17.62-92.49-2.34-22.95-5-45.82-12-68-13-41.06-39.75-60-82.83-61.4-47.77-1.59-92.92,10.21-138.53,21.72-32.28,8.14-63.72,18.78-95.62,28-20,5.79-39.31,13.92-59.42,19.27-22.16,5.89-44.28,13-67.79,11.13C1122.45,149.84,1117.35,150.63,1113.59,146.5Z"/><path class="cls-45" d="M1605.87,253a11.25,11.25,0,0,1-.54,2.58c-.58,1.23-2.59,2-2.66.77-1.26-22.28-5.9-44.18-9.05-66.15-4-28.07-3.86-56.74-19.19-83.63-12-21.11-26-36.71-47.47-45.86-20.56-8.77-42.55-8.69-64.44-7.06-31.52,2.35-62.41,9.2-93,16.21-22.72,5.2-45.16,12.57-67.51,19.8-18.42,6-37.56,10.71-55.83,17.31-24.71,8.91-50.39,14.35-75.12,23.26-16.41,5.91-34.75,2.84-52.27,3,1.78-3.59,1.3-8.14,4.7-11,7.44,5.52,15.59,2.83,23.57,2,4.7-.51,9.38-1.08,14.08-1.62,2.06-2.69,6-2.58,8-5.27,16.45,1.26,30.73-7.11,45.26-12.14,20.83-7.2,41.86-13.77,62.8-20.57C1303.49,76,1330,68,1356.81,61.26c35.82-9,71.47-19,109-19.22,8.08,0,16.16-6.43,25.17-4.68,12.59,2.45,25.11,5.24,37.66,7.89,8.43,7.67,19.89,10.43,28.47,18,21.45,19,32.7,43.42,37.73,70.89,1.81,9.89,4,19.86,4.31,30,.06,1.77.27,2.92.12,1.15a8.66,8.66,0,0,1,1.24-.25c2.35,1.84,2.74,4.45,2.6,7.16C1601.67,199.25,1605.23,226.06,1605.87,253Z"/><path class="cls-47" d="M2000,410.12q0,9.31,0,18.63c-10.15,2.67-17-4.42-23.67-9.4-27.46-20.58-47-47.88-62.85-78-9.31-17.68-16.33-36.41-23.55-55a138.38,138.38,0,0,0-21.09-36.79c-10.08-12.58-22.22-14.51-36.71-7.38-13.82,6.8-23.95,18.14-35.57,27.65-4.32,3.52-7.76,9-14.69,7.27l-.37-.32c-3.7-4.45-3.73-9.37-1.89-14.52,15.94-14.51,29.8-31.44,50.55-40.24,17.21-7.28,30-5.92,44.06,6.45,16.4,14.41,22.68,34.71,31.1,53.6s14.52,38.9,23.9,57.52c5.61,11.15,13.26,20.88,19.91,31.3,1.16,1.82,3,3.28,5.59,1.95C1967.35,388.29,1983.49,399.44,2000,410.12Z"/><path class="cls-45" d="M1954.71,372.89c-2.84,9.47-5.19,2.12-7.06-.39a234.33,234.33,0,0,1-27.94-47.82c-10-23.44-18.53-47.62-30.23-70.17-12.67-24.42-27.11-38.06-48.22-32.91-15.61,3.8-29.23,13.29-40.84,25.19-5.34,5.47-9.28,13.32-18.33,14.21-3.6-3.57-3.59-7.14,0-10.72,14.94-10.54,25.68-25.52,39.49-37.27,7,1.11,12-4.43,18.77-5.19,18.55-2.08,33.09,3.3,43.72,18.89,3.71,5.44,7.38,10.95,12.08,15.64,8.81,25.2,17.75,50.36,26.4,75.62A158.68,158.68,0,0,0,1954.71,372.89Z"/><path class="cls-48" d="M1896.13,242.35c-5-1.11-10-5.62-14.3-12.69-11.29-18.72-33.86-24.93-53.22-14.19-4.16,2.31-6.31,3.09-7-2.46,8.56-8.09,17-16.4,29.27-18.64,2.09-2.65,6-2.55,8.05-5.25,15.52,3.55,23.46,15.16,29.21,28.48C1891.52,225.52,1893.5,234.08,1896.13,242.35Z"/><path class="cls-49" d="M1600.54,165.1c-.1,1.31.29,3-.4,3.88-2.67,3.3-2.08-.23-2.21-1.31a254,254,0,0,0-7.58-40.14c-6-20.89-14-40.46-29.79-56.22a85.75,85.75,0,0,0-33.17-20.56c-2.1-.73-6.21.39-4.67-3.88.4-1.11,3.88-1.11,6-1.62,29.69,3.25,46.41,23.14,57.81,47.69C1597,115.52,1599.9,140.25,1600.54,165.1Z"/><path class="cls-46" d="M1774.59,276.5a74.57,74.57,0,0,0-23.48,16.16c-15.21,15.43-34.53,25.12-52.88,36-4.58,2.71-12,5.13-15.13-3.73,23.19-6.52,39.37-24.09,58.36-37.21,8.25-5.7,16.48-11.73,21.46-20.93C1771.48,264.42,1773.87,269.46,1774.59,276.5Z"/><path class="cls-50" d="M1774.59,276.5c-4.26-2.79-5.8-8.84-11.67-9.71-2.31-3.6-7.13-7.66-1.69-11.42,6.14-4.23,9.74-12.71,18.19-12.72,3.84,0,1.4,5.12,2.65,7.63,0,3.57,0,7.14,0,10.72l-.6,15.83Z"/><path class="cls-51" d="M1858.88,189.12c-.34,5.34-4.16,5.35-8.05,5.25C1851.19,189.05,1855,189,1858.88,189.12Z"/><path class="cls-52" d="M1169.14,117.22c-.33,5.33-4.15,5.34-8,5.27C1161.42,117.13,1165.25,117.12,1169.14,117.22Z"/><path class="cls-53" d="M333.05,138.19c25.91,5.31,46,21.37,66.54,36.42,11.82,8.65,23.15,18,37.12,23.18-2.2,7.42-3.51,8.33-10.7,4.67-9.67-4.94-18.95-10.65-28.4-16-3-1.72-5.78-3.86-9.37-4.3-11.29-1.86-17.49-13.56-29-15-29.62-17.93-61.85-22-94.73-13.93-22.24,5.44-41.93,17.64-61,30.91-39.93,27.81-69.55,65.35-100,102.21-25.65,31.05-47.94,64.85-76.64,93.4-3.76,3.74-6.93,8.34-12.29,9.82-2.9.79-7.47,2.72-6.8-3.77,17.44-22.37,36.81-43.13,53.88-65.86,33.45-44.55,66.87-89.14,107.94-127.38,28.66-26.69,60.35-48,98.13-58.36,18.31-5,37.75-2.78,56.69-.57C327.06,135.6,330.57,135.93,333.05,138.19Z"/><path class="cls-54" d="M388.81,178.43c13.66,5.08,25.23,14,37.92,20.83,4,2.14,7.67,6,10-1.47,6.19,5,13.69,6.27,21.2,7.55,2.45,2.33,6,2.65,8.64,4.59,60.58,8.17,104.92-21.48,143.68-62.74,40-42.63,71-91.89,100.91-141.81L727,5.76c2.43,12.37-8.06,18.06-13.58,26.33-9.13,10.35-15.7,22.49-23.55,33.73-25.58,36.63-51.31,73.2-83.51,104.47-27.82,27-59.86,46.7-98.73,53.62-41.81,2.85-78.83-10.31-112.8-33.7C390.72,187.37,386.88,184.37,388.81,178.43Z"/><path class="cls-55" d="M7.79,385.77c5.71,5.25,8.62-.26,11.69-3.38C43,358.56,63.59,332.32,84,305.84c31.35-40.7,63-81.27,103-114.1,21.47-17.65,45.08-34.29,71.68-41,34.34-8.73,69.93-8.83,100.89,14.41-1.94,2.42-4.67,3-7.54,3.3-4.15.19-8.14-.3-11.69-2.69a17.65,17.65,0,0,0-12.89-5.82,29.29,29.29,0,0,1-3.61-.76c-4.78-1.66-9.81-1-14.71-1.54a17.13,17.13,0,0,1-5.39-1.51c-5.49-4.45-10.95-4.11-16.39.11a18.76,18.76,0,0,1-5.5,1.48c-10,.62-20.39-.33-28.91,6.73-25.72,13.83-51.26,27.71-72.83,48.06C159.4,232,140.46,253,122.17,274.62c-20,23.64-37.5,49.35-58.31,72.35-2.76,3.06-4.39,6.6-6.06,10.22-12.94,17.13-29,31.33-44.1,46.39-2.18,2.18-4.92,3.89-8,1.19V386.54A7.83,7.83,0,0,1,7.79,385.77Z"/><path class="cls-56" d="M609.77,5.1c8.63-1.16,13,1.68,11.75,11.27-.9,6.85-.73,13.85-1,20.79-3.11-1.39-5.47-3.95-8.11-5.75-10.83-7.39-18-14.48-4.5-25.76A2,2,0,0,0,609.77,5.1Z"/><path class="cls-57" d="M5.62,348.57,5.4,317.36c3.23-1.49,7.46-6,7.47,2.42,0,9.3,0,18.6,0,27.9,0,2.06.76,5.4-1.84,5.46C9.25,353.19,7.42,350.2,5.62,348.57Z"/><path class="cls-58" d="M333.05,138.19c-3.94.48-7.75.7-8.62-4.59C328.53,132.81,332.14,133,333.05,138.19Z"/><path class="cls-59" d="M466.55,209.93c-4.11.78-7.74.66-8.64-4.59C461.86,204.86,465.66,204.66,466.55,209.93Z"/><path class="cls-60" d="M581.25,1920.45c-5.28-.15-5.38-4.81-7.39-8.07-10.54-17.11-20.31-35-38.57-45.54-8-12.95-20-22.17-30.67-32.51-31.8-30.77-52.29-68.46-67.53-109.23C422.86,1687,413.83,1647,396,1610.29c-15.4-31.72-38.73-49.87-69.76-39.07-14.31,5-25.15,15.4-35.66,26-17,17.2-32.69,36.18-51.69,50.81-35.68,27.48-61.14,25.55-93.3-8.16-22.32-23.39-37.83-52.08-55-79.32a5.21,5.21,0,0,1,5.28-1.26,11.23,11.23,0,0,1,4.45,3.47c6.35,9,11.48,18.93,19.75,26.53,13.79,15.49,23.76,34.27,40.41,47.3,27.39,21.45,41.26,20.2,67.23,3.5,21.4-13.76,36.33-34.89,54.52-52.35,13.75-13.19,28.07-25.27,46.48-32.35,18.82-7.23,34.08-.85,47.94,10.1,21.72,17.16,32.16,41.87,41.19,67.1,12.54,35,21.93,71.17,36.87,105.4,17.1,39.17,41.06,73.18,73.1,101.65,19.21,17.07,38.17,34.57,51.22,57.22,4.31,7.48,9.91,13.54,17.63,17.54l2.77.43C595.4,1923.44,587.31,1918.64,581.25,1920.45Z"/><path class="cls-23" d="M1683.47,1496.51c14.19-7.61,23.64-22,39.4-27.39,20.5-7,41.11-7.39,61.38.11,10.07,3.72,19.45,9.32,29.14,14.08,4,6.55-1,10.14-4.67,14.16a7.75,7.75,0,0,1-4,.67c-9.86-3.86-18.63-9.86-28.37-14.14-24.74-10.87-45.58-3.24-65.21,11.79-5.59,4.28-10.35,9.63-15.7,14.24-2.55,2.19-5,5.45-9.13,2.58Q1684.88,1504.57,1683.47,1496.51Z"/><path class="cls-60" d="M1686.31,1512.61c6.56-5.61,13.2-11.14,19.67-16.85,26.72-23.58,51.66-26.76,82.18-10.73,6.36,3.34,13.76,5.83,18.38,12.11,1.79,3.94,1.06,7-3,9-5.9,1.42-10.12-2.56-14.63-5-29.53-15.93-55.26-12.52-80,9.69-5.76,5.18-10.1,14.15-20.42,12.38q-1.44-4-2.89-8Z"/><path class="cls-61" d="M1275.15,1691.48c4.07-.68,7.72-.59,8.6,4.64l-7.89.2C1275.62,1694.7,1275.38,1693.09,1275.15,1691.48Z"/><path class="cls-47" d="M1688.54,1523.27c14.24-7.8,22.48-23.28,37.7-29.72,19.1-8.08,38.45-7.3,57.43.18,6.75,2.66,12.76,7.21,19.11,10.89a2.67,2.67,0,0,1,.16,3.65,10,10,0,0,1-3.37,2.21c-5.58,1.65-10.39-.71-15.15-3-26.12-12.86-49.94-9.74-71.9,9.52-5,4.36-9.86,8.84-15.18,12.77-3,2.24-6.31,3.89-8.48-1.18l-.93.23C1688.13,1526.94,1688.34,1525.1,1688.54,1523.27Z"/><path class="cls-62" d="M1690.89,1544.68l.27,7.89c-14.16,13.44-18.49,32.61-27.87,48.82-8.49,14.67-13.57,31.31-20.15,47.08-10.52,26.68-21.59,53.15-32,79.89-3.17,2.17-1.48,9.18-8,8V1731c2-18.17,12.79-33,19-49.59s13.78-32.86,20.18-49.39c10.45-27,22.76-53,36-78.67,2.15-4.18,4.33-9,10.42-8.9A1.25,1.25,0,0,1,1690.89,1544.68Z"/><path class="cls-45" d="M1690.89,1544.68c-.72,0-1.44-.11-2.15-.2l.12-15.94c9.57,1.9,13.23-6.86,18.18-11.5,24-22.52,48.86-26.85,78.73-12.61,4.46,2.13,9.08,6.11,14.83,3,2.23,3.19,1.13,6.37,0,9.55-1.39,2.12-2.2,5.22-5.88,3.57-17.13-21-56.09-20.86-76.21-4C1708.2,1525.11,1700.39,1535.63,1690.89,1544.68Z"/><path class="cls-55" d="M1603.2,1736.35l8-8c-2.26,18-14.06,31.91-20.37,48.16-6.75,17.35-20.55,30.56-27.57,47.71-15,14.21-27.45,32.27-50.6,34.62-35.71,4.6-62.67-13-87.82-34.87-3.9-3.4-7.51-7.39-8-13.06,12.18,9.08,24.9,17.87,36.54,27.19,35.13,28.14,87.36,8,106.15-22.15C1575.51,1790.17,1593.33,1765.49,1603.2,1736.35Z"/><path class="cls-55" d="M1315.58,1739c18.23-.59,30.77,11,44.13,20.74,20.3,14.73,39.86,30.3,54.4,51.17-13.49-7.28-23.55-18.83-34.83-28.74-18.15-16-35.71-32.39-60.23-38.11C1316.51,1743.48,1315.9,1741.27,1315.58,1739Z"/><path class="cls-23" d="M98.54,1563.25l-2.67-2.66c-7.58-6.73-13.53-14.94-20.37-22.33C59.19,1520.62,40,1508.43,15,1508.05c-3.58,0-7-.68-9.69-3.39v-16c37.24-4,62.44,16,86.18,41.15,20.89,22.12,33.35,49.84,52.13,73.24,11.94,14.89,24.36,29.24,43.91,33.61,17.41,3.89,32.51-3,44.83-14.52,19.64-18.42,38.06-38.12,57.48-56.78,14.92-14.34,33-25.35,53.19-27.24,12.47-1.17,26.44,5.16,37,14.94,23.84,22,36,50.69,46.61,80.31,14.64,40.7,24.21,83.44,45.45,121.45,8.64,15.44,17.62,31.06,30.69,44.15,25.17,25.2,51.67,49.22,74.32,76.8,9.22,11.22,16.9,23.79,19.45,38.65-5.47.6-10.39.63-13.63-5.35-18.21-33.61-48.32-56.61-74.37-83.28-25.16-25.75-44.05-55.67-58.27-88.9-16.72-39.07-26.22-80.58-42.25-119.86-8.15-20-19.76-37.14-35.74-51.52-12.93-11.64-41.63-11.91-57.15-.77-22.28,16-40.8,35.8-59.29,55.87-14.54,15.77-31.36,30.06-52.71,35.1-16.81,4-31.64-4.59-44.23-15.39-16.77-14.38-29.3-32.45-41.79-50.47C111,1581,105.83,1571.37,98.54,1563.25Z"/><path class="cls-60" d="M5.33,1504.66c42.38-4.7,74.64,26.56,90.54,55.93H90.54c-8.64-2.67-11.39-11.48-17.25-17.07-19.24-18.32-40-31.48-68-28.21Q5.34,1510,5.33,1504.66Z"/><path class="cls-3" d="M1808.56,1496.8l4.83-13.49,4.62-3.06c14.35,11.23,25.79,25.27,36.5,39.74,24.23,32.75,44,68.44,66.06,102.61,14.43,22.34,30.34,43.58,50,61.66a78.2,78.2,0,0,0,29.27,17.47v24c-12.94,4.53-21.24-5.15-29.05-11.57-22.89-18.84-44.59-39.14-57-67.13a36,36,0,0,0-5.68-9c-23.94-27.59-38.15-61.53-59.47-90.79-9.65-13.24-21.25-24.9-32.17-37.09C1813,1506.21,1809,1502.61,1808.56,1496.8Z"/><path class="cls-4" d="M1808.56,1496.8c26.48,25.88,51,54.08,67.37,86.91,13.17,26.43,32.88,47.77,47.4,73.06,17.35,30.23,41.36,56.74,76.56,68.93q.13,6.67.29,13.34l-.34-.07c-6.84,4.23-11.64-.66-16.7-3.87-29.65-18.79-52-44.88-72.23-73-21.76-30.13-38.69-63.31-59.69-94-12.79-18.65-26-36.78-42.33-52.5-2.54-2.45-5.06-5-6.22-8.46.07-.86.11-1.73.11-2.6l3.76-7.48C1807.22,1497.05,1807.89,1496.93,1808.56,1496.8Z"/><path class="cls-4" d="M751,5.75c-.66,11.4-9.13,19-14.61,27.7-20.5,32.47-41.2,64.92-63.87,95.88-27.14,37.07-58.07,71.13-96.51,97-17.68,11.88-37.35,22.1-58.71,24.67-29.78,3.58-59,2.89-87.83-10.9-28.26-13.53-52.93-32.59-80.95-46.44-40.9-20.22-79.35-15.78-117.24,5.57C187,224.15,154.86,261.9,123.43,301c-33.54,41.76-62.61,87.62-105.2,121.66-3.86,3.08-7,6.82-12.59,6.07q0-6.69,0-13.4c11-13.22,25.46-22.8,37.06-35.71,24.88-27.67,46-58.19,69.44-86.9,31.38-38.4,63.14-76.42,106-102.66,19.45-11.91,39.5-24,63.81-23.35,4.25.11,7.27-3.1,11.18-3.88,35.73,3.07,67.06,17.14,96.6,36.92C413.93,216,438.94,229.47,469,235c34.22,6.26,63.76-1.79,92.31-17.75,40.7-22.75,70-57.62,98.34-93.76,21.94-28,40.2-58.29,60.07-87.56C726.88,25.3,732.14,13.45,743,5.76Z"/><path class="cls-5" d="M292.94,165.11c-8,10.07-20,3.44-29.81,7.33-22.36,8.88-43.92,18.67-62.83,34A488,488,0,0,0,146,258c-16.88,18.56-31.8,38.59-47.62,57.94-22.21,27.17-42,56.29-67.3,81A97.23,97.23,0,0,1,5.63,415.35c0-3.53,0-7.05,0-10.58C17.18,397.81,26,387.54,35,378c6.83-7.2,14-14.12,20.91-21.18,36.28-46.41,71.76-93.52,113.44-135.34a260.9,260.9,0,0,1,87.69-58c8.88-3.59,19.07-3.59,28.77-3.91C289,159.53,293.4,159.65,292.94,165.11Z"/><path class="cls-1" d="M831.37,5.22l234.68.5c2.41,6.66-2.44,10.94-5.61,15.33a725.28,725.28,0,0,1-83.19,95.6c-15,11.64-30.4,22.7-48.09,30-14.71,6.07-43.9,6.32-59.36-9.67a97.86,97.86,0,0,1-18.26-27.22C837.12,80,832.14,47.92,828,15.62c-.45-3.56-.19-7,2.3-9.95Z"/><path class="cls-63" d="M977.5,114.43c3.07-10.29,12.76-14.9,19.36-22.08,25.08-27.3,49.86-54.77,69.19-86.63a2.45,2.45,0,0,0,1.79-.63l10.71.64c4.07,4.92,1.16,9-1.49,13.18a445.28,445.28,0,0,1-61.86,77.18c-4.72,4.68-8.24,10.47-13.42,14.64-5.41,4.37-10.4,9.94-18.5,8.83C980.45,118.86,978.29,117.41,977.5,114.43Z"/><path class="cls-64" d="M292.94,165.11c-11.68-6.78-24.75-2.14-34.3,1.52C215.9,183,180.7,210.74,150.41,245.14c-30.73,34.9-60.77,70.3-87.64,108.29-1.69,2.39-4.07,3.27-6.85,3.43-1-11.23,9.28-15.61,14.58-22.59,19.31-25.44,39.6-50.15,60.14-74.63,27.64-32.95,57.88-63.21,95.12-85.5,7.75-4.63,16.36-7.83,24.57-11.69,10.11-4.84,21.07-6.3,32-8h5.33q8-5.34,16,0h5.32c4.9,3.47,11.06-.68,16,2.66h2.66c3.5,4.13,9.64,1.66,13.32,5.32,2.8,3.86,7,2.3,10.65,2.66,22.63,10.1,42,25.74,63.69,37.47,12.87,7,25.84,13.34,40.19,16.56,5.47,4.46,12.12,3.49,18.45,3.94a32.46,32.46,0,0,1,5.8.93,36.47,36.47,0,0,0,21,0,56.9,56.9,0,0,1,6-.32c17.07-.48,31.7-9.44,47.64-13.79,7.71.33,14.11-2,18.14-9.06a18.68,18.68,0,0,1,6.69-5.83c5.28-2,10.3-4.38,14.38-8.39a31.89,31.89,0,0,1,2.58-2.06c2.74-1.88,4.69-4.58,7-6.94a22.15,22.15,0,0,1,2.71-2.21c8.91-7.2,15.78-16.21,22.71-25.18a18.92,18.92,0,0,1,2.39-2.67,20.83,20.83,0,0,0,6.61-8.09,15.35,15.35,0,0,1,3.85-3.9,503.65,503.65,0,0,0,33.06-42.84c19.95-28.58,38.76-57.94,58-87H743c-4.19,12.18-14.38,20.44-20.41,31.69-9.69,18.1-22,34.86-33.69,51.82-22.74,32.94-47,64.72-75.56,92.94-22.28,22-47.38,40.93-76.9,51.12-16.79,5.79-35.37,11.31-53.72,8.7a207,207,0,0,1-88.84-34.61c-22-15.06-44.19-30.24-70.72-35.84C313.1,169.46,302.65,169.09,292.94,165.11Z"/><path class="cls-65" d="M830.3,5.67c4.87,35.3,9.45,70.68,24.64,103.52,2.43,5.8-.45,8.27-5.77,9.21-11.84-8-15.46-21.26-19.42-33.39-7-21.26-11.49-43.28-15.67-65.3-.86-4.56-2.62-9.52.86-14Z"/><path class="cls-66" d="M814.94,5.74c5.35,24,10.58,48,16.09,72,3.3,14.33,11.48,26.5,18.06,39.37,2,1.39,2.16,3.35,1.6,5.51a8.58,8.58,0,0,1-4.59,4.26,10,10,0,0,1-4.28.26c-7.89-3.26-10.27-10.92-12.94-17.7-12-30.66-18.94-62.77-25.9-94.84-.66-3-1.13-6.17,1.31-8.81Z"/><path class="cls-4" d="M804.29,5.76c7.85,32.89,14.52,66.1,26.2,98,3,8.09,6.11,16,13.45,21.36,3.26,3.37,1.33,5.94-1.3,8.4a3,3,0,0,1-3.66-.31c-9.56-3.89-12.33-12.66-15.72-21.23C811.49,82.22,808.86,50,798.08,20c-1.72-4.77-1.73-9.46-1.8-14.29Z"/><path class="cls-67" d="M732.35,5.75C714,43.9,689.61,78.15,663.58,111.28c-7.17,9.12-10.57,21.31-21.77,27.2-3.93-5.67,1.23-8.67,3.61-12.56,11-18,25.87-33.22,37.1-51,9.57-15.17,21-29.18,28.53-45.61,7.42-6.42,12.21-14.62,16-23.53Z"/><path class="cls-3" d="M1009.22,154.5c-.76-.06-1.52-.1-2.29-.11-2-3.06-5.35-4.81-7.38-7.84-1.47-2.84-2.74-5.71-1.15-8.94A761.46,761.46,0,0,0,1099.84,14.45a35.88,35.88,0,0,1,8-8.7h21.3c-8.65,21-22.43,39.08-35.91,56.78-22.38,29.38-44.7,59.08-72.19,84.2C1017.52,149.94,1014.85,154.47,1009.22,154.5Z"/><path class="cls-68" d="M1107.84,5.75C1096.34,33.05,1075,53.57,1058,77c-14.33,19.83-32.55,36.85-49.06,55.09-3,3.31-6.11,6.51-11,6.72a3.52,3.52,0,0,1-3.42-.93,11.13,11.13,0,0,1-2.67-8.89c5-13.15,18.55-18.23,27.24-28.14,19.82-22.61,36.11-47.8,55.27-70.82,6.74-8.09,12.06-17.36,20.19-24.32Z"/><path class="cls-67" d="M1094.52,5.75c-7.06,14.75-17.8,26.92-27.72,39.69q-19.69,25.34-39.07,50.93c-10,13.22-25.14,21.33-34.67,35a4.85,4.85,0,0,1-3.4-.5c-3.1-2.72-6.68-5-8.4-9-.34-1.89-.07-3.57,1.65-4.75,9.57.29,15.14-6.79,20.47-12.64,19-20.95,38.06-42,55.64-64.19,8.11-10.22,16-21.37,19.53-34.57Z"/><path class="cls-5" d="M1802.67,1507.22c16.43,10.77,28.7,25.81,39.35,41.7,24.58,36.66,47.64,74.34,72,111.18,19.52,29.58,43.81,54.78,73.58,74.32,3.56,2.34,8.17,3.07,12.29,4.55v8c-12.41,7.81-21.75-1.5-29.94-7.36a190.82,190.82,0,0,1-43.49-42.45c-13.77-18.89-30-36-41.64-56.41-19.77-41.16-46.41-77.61-76.73-111.51-3.84-4.29-8-8.22-10-13.86l2.51-8Z"/><path class="cls-69" d="M1885.49,1640.48c3.62,1.69,7.4,3.33,9,7.3,8.06,19.42,24.23,33,36.47,49.28,14.31,19,31.33,36.39,53.35,47.5,5.05,2.56,10.21,2.4,15.48,2.46q0,8,.05,15.94c-32.91-15.16-58.49-39.28-81-67-10.19-12.55-19.23-26-28.82-39.07a38.41,38.41,0,0,1-7.29-16.46A1.62,1.62,0,0,1,1885.49,1640.48Z"/><path class="cls-23" d="M1094.5,178.42a34.56,34.56,0,0,1,10.88-15.91c2.68-2.73,6.11-3.59,9.73-3.58,51.65.19,98.43-20.06,146.41-35.08,30.86-9.66,62.06-18.07,93-27.25,25.54-7.57,51.68-11.93,77.84-16.33,13-2.19,26.64-5.53,39.17-5.46,43.37.27,83.29,8.92,98.9,62.11,7.42,25.26,9.14,51.46,12.52,77.4,4.41,33.82,8.49,67.38,23.82,99,21.38,44.12,61.88,49.19,101.15,31.36,24.67-11.21,45.53-29.23,65.73-47.24,12.56-11.2,25.86-21.63,37.41-34,3.35-3.58,7.66-6,11.89-8.46,23.88-13.87,41.67-8.79,55.13,15.61,12,21.82,19.71,45.6,30.68,67.87,18,36.51,38.82,70.81,75.22,92.5,6,3.57,12.36,7.18,16,13.73v16c-24.5-7.25-43.63-22.65-60.27-41.14-29.14-32.4-46.94-71.29-62.29-111.53a108.67,108.67,0,0,0-12.59-23.24c-10.5-15-24.35-17.79-40.25-6s-30.39,25.57-45,39c-25.6,23.46-53.07,44.46-85.92,56.15-34.75,12.36-62.81,2.42-83.37-22.82-24-29.42-34.89-64.63-39.2-102.22-3.75-32.77-6.45-66-14-97.92-7.41-31.38-25.93-51.22-63.95-52.51-38.69-1.32-75.8,6.28-113.32,15-54.58,12.67-107.33,30.76-160.66,47.35-29.61,9.21-59.6,18.7-91.1,20.25a57.47,57.47,0,0,1-17-1.74C1105.79,178,1100.17,174.37,1094.5,178.42Z"/><path class="cls-70" d="M2000,444.74c-25-13.29-47.06-29.77-64.18-53.14-22.19-30.28-36.53-64.24-50.7-98.48a157.22,157.22,0,0,0-11-22.54c-16.49-26.76-34.27-26.42-58.9-5.3-27.65,23.71-54.34,48.41-83.7,70.2-24.9,18.47-52,25.22-81.83,20.85-22.1-3.24-34.19-20.32-44.38-38.21-18.39-32.31-21.57-68.51-26.15-104.38-4-31-4.64-62.72-18.42-91.61-11.14-23.35-29.4-38-55.9-39.28-9-.45-15.77-8.73-25.17-5.61-23.19,7.71-48.55,2.64-71.53,12.44-5.78,2.47-13.37.32-19.64,2-25.41,7-50.74,14.76-76.17,21.29-22.84,5.86-44.85,14-67.32,20.69-19.8,5.87-40.4,9.91-59.14,19.37-3.35,1.69-7.81,1-11.63,1.95-22.62,5.6-45.43,9.2-68.84,7.48.93-6.26,5.15-10.84,8.21-16,37.27,1.82,72.33-7,106.82-20.51,18.51-7.23,38.56-10.44,57.21-17.37,34.19-12.72,69.76-20.7,104.79-30,40.69-10.81,83-17,125.3-11,37.79,5.29,58.42,31,68.57,66.29,8.83,30.7,10.62,62.41,13.68,93.95,2.79,28.77,8.79,57.27,23.7,82,13.16,21.82,32.32,39.32,60.78,36,13.5-1.59,26.78-7.13,38.72-14.53,24.92-15.45,48.22-33,68.7-54.06,10.53-5.83,18.24-15.08,26.92-23A100.79,100.79,0,0,1,1835,236.84c14.08-6.49,27.67-1.18,38.07,12.1,16.11,20.59,23.9,45.15,33.32,68.77a253.94,253.94,0,0,0,52.23,81.89c11.3,11.82,24.32,24.17,41.41,29.15q0,6.67,0,13.33C2000,443,2000,443.85,2000,444.74Z"/><path class="cls-60" d="M995.64,138.6a21.58,21.58,0,0,0,2.27.25c1.77,2.26,3.65,4.47,3.49,7.61-12.95,5.95-23.71,15.2-34.88,23.72-12.23,9.34-27,12.37-40.7,18.29-36.21,9.7-76.36-19.29-89.84-47.4l3-7.88c.71-.09,1.42-.16,2.14-.22,4.84-2.88,7.86.18,9.5,3.85,2.48,5.54,7.56,8.3,11.25,12.45,28.82,32.41,78.81,22.45,105.51,0,6.62-5.57,12.76-12.51,22.37-13.17A7.39,7.39,0,0,1,995.64,138.6Z"/><path class="cls-71" d="M836,141.07c2.86.2,4.68,1.69,6.3,4.08,20.27,29.85,47.88,44.79,84.48,41.27,4.51.54,9.5-1.3,13.32,2.66-9.52,9-22.2,7.9-33.11,7.44-27.66-1.16-49.84-14.1-65.79-37.22-2.59-3.75-3.89-9.14-9.68-9.92C833.2,146.72,832.7,142.88,836,141.07Z"/><path class="cls-72" d="M940.08,189.08c-4.06-2.78-10.32,5.46-13.32-2.66.39-2.26,1-4.68,3.64-4.91C952.88,179.56,968,164,985.06,152c5-3.51,9.22-8.57,16.34-5.56a8.76,8.76,0,0,1,5.53,7.93c-15.09-1.2-22,12.35-33,18.55S954.18,189.51,940.08,189.08Z"/><path class="cls-73" d="M1885.49,1640.48h-2.67c-11.65-15-21.1-31.24-30.5-47.69-15.12-26.46-35.91-48.58-57.74-69.69a14.17,14.17,0,0,0,.1-2.52c1.13-1.72,2.27-3.43,3.41-5.15,13,10.08,21.64,24.13,32.71,35.89a221.12,221.12,0,0,1,31.78,43.65C1870.82,1609.69,1885.35,1621.63,1885.49,1640.48Z"/><path class="cls-55" d="M1611.19,1728.36c3.25-21.17,14.21-39.53,21.82-59.09,2.76-7.08,2.18-16.15,10.13-20.8-4.19,23.07-15.7,43.48-24.12,65C1617,1718.5,1616.43,1724.82,1611.19,1728.36Z"/><path class="cls-44" d="M500.67,1840.21c-5.37-.26-5.37-4.12-5.33-8A8.09,8.09,0,0,1,500.67,1840.21Z"/><path class="cls-44" d="M508.66,1848.2a16.72,16.72,0,0,1-8-8Q508.28,1840.59,508.66,1848.2Z"/><path class="cls-69" d="M479.36,226.37H474c-5.24-5.17-13.31-.44-18.64-5.32-22.93-1.22-40.32-15.29-59.17-25.8-14.42-8-28.34-17-42.36-25.68-1.23-.76-1.58-2.93-2.33-4.45h8c6.61-1,11.35,2.1,16.21,6.27,3.67,3.15,6.84,8.29,13.08,7.05,7.89,12.65,22,16.77,33.73,23.83,26.4,15.89,56.08,18.57,86.12,18.78,1.61,3-1.19,3.84-2.67,5.32h-5.32A37.17,37.17,0,0,1,479.36,226.37Z"/><path class="cls-73" d="M506,226.36l2.67-5.32c55.73-12.88,95.29-48.22,129.94-91.51C664.42,97.26,687,62.79,711.05,29.29c.33,6.14-3.09,10.6-6.08,15.59-18.31,30.58-41.8,57.53-60.89,87.55-1.13,1.78-1.53,4-2.27,6l-2.66,2.66c-2.7,2.64-5.34,5.32-8,8-8.21,10.38-17.53,19.74-26.63,29.3-3.57,1.76-5.39,5.26-8,8h0c-5.11,3.88-11.29,6.15-16,10.65a9.24,9.24,0,0,0-5.33,5.33c-6.05,3.82-12.38,7.17-18.64,10.65-9,2.83-18.76,4.31-26.76,8.87S514.16,226.22,506,226.36Z"/><path class="cls-69" d="M282.29,154.46c-10.68,2.54-20.51,8.49-32,8C259.24,152.81,271,154.7,282.29,154.46Z"/><path class="cls-69" d="M303.6,154.46h-16Q295.6,142.1,303.6,154.46Z"/><path class="cls-69" d="M340.88,162.45c-4.7-1.12-11.57,3.17-13.32-5.33C332.7,157.16,338.2,156.27,340.88,162.45Z"/><path class="cls-69" d="M324.9,157.12c-5.33-.84-11.31,2.14-16-2.66C314.25,155.31,320.23,152.32,324.9,157.12Z"/><path class="cls-60" d="M98.54,1563.25c10.33,6,15,15.92,18.64,26.63C108,1583.05,102.93,1573.4,98.54,1563.25Z"/><path class="cls-41" d="M982.91,117.13c.05,1.55.11,3.11.16,4.67C981.13,135.31,968.64,139,959.75,145c-25.77,17.63-53.43,22.88-82.58,7.52-13-6.85-21.2-18.19-28.47-30.4l.39-5.08c3.67-1.35,5.12-4.35,5.85-7.89,5.87,12.42,12.88,24,25.24,31.06,21.41,12.18,41.71,6.81,62.09-3.64,12.46-6.39,21.46-18.06,35.23-22.18Z"/><path class="cls-67" d="M604.53,178.43c5.32-13,16.87-20.33,26.63-29.3C625.24,161.59,617.36,172.26,604.53,178.43Z"/><path class="cls-67" d="M556.59,213.05c4.12-7.21,10.42-10.62,18.64-10.65C571.08,209.56,565.56,214.32,556.59,213.05Z"/><path class="cls-73" d="M455.39,221c6.18,1.9,14.76-4.6,18.64,5.32C467.58,225.42,459.74,229.33,455.39,221Z"/><path class="cls-67" d="M580.56,197.07c2.41-7.93,9.2-9.28,16-10.65C593.11,192.81,587.53,196,580.56,197.07Z"/><path class="cls-73" d="M479.36,226.37h21.31Q490,232.52,479.36,226.37Z"/><path class="cls-67" d="M631.16,149.13q.38-7.6,8-8Q638.78,148.76,631.16,149.13Z"/><path class="cls-67" d="M596.54,186.42q.38-7.62,8-8C602.61,181.83,601.75,186.31,596.54,186.42Z"/><path class="cls-74" d="M995.64,138.6c-11.44-2.18-18.27,6.44-25.06,12.46-22.86,20.23-49.93,26.4-78.26,20.88-18.58-3.63-34-16.56-44.24-33.66-1.7-2.83-3.42-5.12-7-5.31l2.82-7.87,2.64-.78c9.26,4.82,13.38,14.66,20.93,21.43,22.1,19.8,46.11,19,71.84,10.81,14.7-4.69,25.48-15.67,38.16-23.6,4.13-2.58,7.56-6.7,12.79-2.35l2.76.76Z"/><path class="cls-45" d="M990.3,130.61c-13.71,3.75-23.17,14.29-34.37,21.95-19.55,13.39-67.2,20.68-85.64-.82-7.84-9.14-19.16-15.31-23.71-27.42l2.12-2.16c12.25.91,12,14.32,20.3,20.38,16.94,12.3,48.62,20.56,68,11.21,16.92-8.18,33.26-17.67,46.12-31.95C986.41,124,990.41,125.61,990.3,130.61Z"/></svg>